<svg xmlns="http://www.w3.org/2000/svg" width="40" height="40" viewBox="0 0 40 40">
  <defs>
    <style>
      .cls-1 {
        fill: #fff;
        fill-rule: evenodd;
      }
    </style>
  </defs>
  <g id="Artboard_1" data-name="Artboard 1">
    <path class="cls-1" d="M6,11H24l3,1,4,1,2,3v5l-2,1H25l-1,2s-0.062,2.4,0,3,2,3,2,3h8l3-1s2.354-1.937,2-2,0-10,0-10l-1-3-1-3L34,8,30,5,26,3,20,2,14,3,10,5,7,8Z"/>
    <path class="cls-1" d="M6,12L5,13v2l1,1h9l3,1,1,2v8l-1,2L4,28,3,29v4l3,1H22l1-1V23l1-2h7l1-1V16a50.419,50.419,0,0,0-4.308-2.654A26.6,26.6,0,0,0,24,12H6Z"/>
    <path class="cls-1" d="M2,17L1,18v1l1,1h8l2,1v3l-1,1H2L1,26l1,1H16l1-1V19l-1-1-3-1H2Z"/>
  </g>
</svg>
