<?xml version="1.0" encoding="utf-8"?>
<!-- Generator: Adobe Illustrator 23.0.1, SVG Export Plug-In . SVG Version: 6.00 Build 0)  -->
<svg version="1.1" id="Layer_1" xmlns="http://www.w3.org/2000/svg" xmlns:xlink="http://www.w3.org/1999/xlink" x="0px" y="0px"
	 viewBox="0 0 24 24" style="enable-background:new 0 0 24 24;" xml:space="preserve">
<title id="simpleicons-ps4-icon">PS4 icon</title>
<path fill="currentColor" d="M8.88,2.28C8.99,2.29,9.11,2.3,9.21,2.34c0.08,0.01,0.16,0.02,0.24,0.03c0.18,0.07,0.38,0.09,0.56,0.15
	c0.08,0.01,0.16,0.02,0.25,0.03c0.08,0.03,0.16,0.06,0.24,0.09c0.15,0.04,0.31,0.08,0.47,0.1l-0.01,0.03
	c0.23,0.04,0.46,0.11,0.69,0.18c0.21,0.05,0.43,0.1,0.63,0.19c0.07,0.01,0.14,0.01,0.22,0.02l0,0.05c0.04,0,0.13,0.02,0.18,0.02
	c0.08,0.03,0.15,0.06,0.23,0.09c0.15,0.04,0.29,0.08,0.43,0.13c0.16,0.05,0.33,0.11,0.5,0.16c0.12,0.04,0.24,0.08,0.35,0.11
	c0.08,0.03,0.17,0.06,0.26,0.09c0.06,0.02,0.12,0.04,0.18,0.06c0.08,0.03,0.17,0.06,0.25,0.09c0.08,0.03,0.16,0.07,0.23,0.1
	c0.07,0.02,0.13,0.05,0.2,0.08c0.1,0.05,0.2,0.09,0.3,0.14c0.11,0.06,0.21,0.11,0.31,0.17c0.01,0,0.04,0,0.06,0
	c0.14,0.1,0.28,0.18,0.43,0.26c0.07,0.05,0.15,0.1,0.22,0.15c0.3,0.18,0.54,0.43,0.79,0.66c0,0.01-0.01,0.04-0.01,0.06l0.04-0.03
	c0.17,0.21,0.34,0.42,0.49,0.65c0.04,0.07,0.08,0.15,0.12,0.22l0.02-0.01c0.02,0.07,0.05,0.14,0.07,0.21
	c0.04,0.08,0.07,0.16,0.11,0.24c0.08,0.26,0.18,0.51,0.21,0.78c0.01,0,0.03,0,0.04,0c0.01,0.14,0.01,0.29,0.02,0.43l0.04-0.01
	c0.04,0.66,0.12,1.33,0.03,2c-0.01,0.14-0.02,0.27-0.03,0.41l-0.04-0.01c-0.01,0.11-0.02,0.23-0.03,0.35
	c-0.05,0.12-0.09,0.24-0.12,0.36c-0.03,0.08-0.06,0.17-0.09,0.25c-0.04,0.08-0.09,0.17-0.14,0.25l-0.01,0.05
	c-0.02,0.04-0.07,0.11-0.09,0.15l-0.01,0.01c-0.05,0.08-0.1,0.15-0.15,0.22c-0.02,0.02-0.05,0.06-0.07,0.08l-0.02,0
	c-0.02,0.02-0.05,0.07-0.06,0.09c-0.07,0.07-0.15,0.14-0.22,0.21c-0.09,0.06-0.17,0.12-0.26,0.17c-0.03,0.02-0.09,0.06-0.12,0.08
	c-0.02,0-0.05,0-0.06,0c-0.53,0.29-1.15,0.2-1.72,0.16c-0.22-0.08-0.45-0.13-0.67-0.22c-0.08-0.03-0.15-0.06-0.23-0.08l0-0.06
	c-0.03,0.01-0.08,0.02-0.11,0.03l0-0.08l-0.06,0c0.01-1.53,0-3.06,0-4.58c0-0.6,0.01-1.21-0.02-1.81c-0.01,0-0.03,0-0.04,0
	C14.2,5.6,13.7,5.2,13.2,5.3c-0.03,0.02-0.09,0.06-0.13,0.08C12.86,5.6,12.77,5.9,12.8,6.2c0,4.45,0,8.89,0,13.34
	c0,0.38-0.01,0.76,0.02,1.14c-0.04,0-0.12,0.01-0.16,0.01c0.04-0.03,0.07-0.06,0.11-0.09c-0.19,0.04-0.36-0.04-0.53-0.1
	c-0.16-0.05-0.33-0.11-0.5-0.15c-0.08-0.03-0.16-0.06-0.24-0.09c-0.04,0-0.12-0.01-0.16-0.02l0-0.04c-0.15-0.03-0.29-0.08-0.43-0.12
	c-0.12-0.04-0.25-0.08-0.38-0.1l0.01-0.04c-0.04,0-0.12-0.01-0.16-0.02c-0.08-0.03-0.16-0.06-0.23-0.1
	c-0.06-0.02-0.13-0.03-0.19-0.05c-0.08-0.03-0.16-0.05-0.24-0.08c-0.19-0.06-0.37-0.12-0.56-0.18c-0.09-0.03-0.18-0.05-0.27-0.08
	C8.88,13.72,8.89,8,8.88,2.28z"/>
<path fill="currentColor" d="M7.95,12.67c0.05,0,0.14,0,0.19,0c0,0.75,0.01,1.5-0.01,2.25C8,14.96,7.86,15,7.74,15.06c-0.04,0.01-0.1,0.02-0.14,0.02
	c-0.07,0.03-0.13,0.07-0.2,0.1c-0.03,0-0.08,0.01-0.1,0.02c-0.26,0.11-0.53,0.18-0.79,0.29c-0.04,0-0.12,0.01-0.16,0.02v0.04
	c-0.09,0.03-0.19,0.06-0.28,0.09C6,15.67,5.93,15.69,5.85,15.71l0.01,0.03c-0.07,0.02-0.14,0.04-0.21,0.06
	c-0.1,0.03-0.19,0.07-0.29,0.09l0,0.04c-0.04,0-0.12,0.01-0.16,0.02C5.1,16,4.99,16.04,4.88,16.07l0,0.03
	c-0.29,0.06-0.56,0.19-0.84,0.28c-0.08,0.04-0.16,0.08-0.24,0.12c-0.07,0.05-0.13,0.09-0.2,0.14c-0.03,0.09-0.06,0.19-0.08,0.28
	l0.06,0c0.02,0.02,0.06,0.07,0.08,0.09l-0.01,0.03c0.07,0.03,0.15,0.06,0.22,0.09c0.09,0.02,0.19,0.04,0.28,0.06l-0.02,0.04
	c0.46,0.03,0.91,0.02,1.37,0l-0.02-0.04c0.27,0,0.52-0.08,0.77-0.18c0.03-0.01,0.1-0.02,0.14-0.03c0.07-0.03,0.15-0.07,0.22-0.1
	c0.09-0.03,0.18-0.06,0.27-0.09c0.08-0.03,0.16-0.06,0.23-0.09c0.08-0.03,0.17-0.06,0.25-0.08c0.13-0.05,0.27-0.1,0.4-0.16
	c0.03,0,0.09,0,0.12,0l0-0.06c0.08-0.01,0.17-0.02,0.25-0.02c0,0.66,0,1.32,0,1.98c-0.16,0.03-0.33,0.06-0.5,0.08l0,0.04
	c-0.21,0-0.41,0.02-0.62,0.03l0.02,0.04c-0.24,0.01-0.49,0-0.73,0.04c-0.41,0.01-0.82,0.04-1.23-0.02
	c-0.24-0.01-0.48-0.02-0.72-0.03l0.01-0.04c-0.18-0.01-0.36-0.02-0.54-0.03c-0.02-0.07-0.07-0.17-0.11-0.06c-0.05,0-0.15,0-0.2,0
	l-0.03-0.03c-0.11-0.01-0.22-0.03-0.32-0.06c-0.11-0.02-0.21-0.03-0.31-0.07c-0.08-0.02-0.16-0.03-0.24-0.04
	c-0.08-0.03-0.17-0.05-0.25-0.08c-0.07-0.01-0.15-0.02-0.22-0.02l0.01-0.04c-0.2-0.04-0.39-0.11-0.58-0.18
	c-0.1-0.03-0.21-0.07-0.31-0.1c-0.06-0.03-0.12-0.07-0.18-0.1c-0.02,0-0.05,0-0.07,0C1,17.65,0.93,17.61,0.9,17.59
	c-0.1-0.06-0.21-0.12-0.31-0.18c-0.1-0.09-0.2-0.18-0.3-0.27c-0.07-0.08-0.13-0.17-0.19-0.25c-0.12-0.27-0.12-0.6-0.01-0.88
	c0.14-0.18,0.3-0.34,0.48-0.46c0.11-0.07,0.21-0.13,0.32-0.19l0-0.05c0.03,0,0.08,0.01,0.11,0.01l0.01-0.05
	c0.13-0.06,0.26-0.12,0.39-0.19c0.1-0.04,0.2-0.09,0.3-0.14c0.07-0.03,0.13-0.05,0.2-0.08c0.17-0.08,0.34-0.14,0.52-0.19l0-0.04
	c0.04,0,0.13-0.01,0.17-0.01c0.07-0.03,0.13-0.07,0.2-0.1c0.03-0.01,0.08-0.02,0.11-0.03c0.06-0.02,0.12-0.04,0.19-0.07
	c0.2-0.08,0.39-0.14,0.59-0.21c0.07-0.02,0.13-0.04,0.2-0.07c0.1-0.04,0.2-0.08,0.3-0.12c0.04-0.01,0.11-0.02,0.14-0.03
	c0.19-0.09,0.4-0.15,0.59-0.22c0.17-0.06,0.33-0.11,0.49-0.19c0.03-0.01,0.1-0.02,0.13-0.02c0.1-0.05,0.2-0.09,0.31-0.13
	c0.07-0.02,0.15-0.04,0.22-0.06l-0.01-0.03c0.16-0.03,0.32-0.1,0.47-0.15c0.1-0.04,0.2-0.07,0.29-0.11c0.15-0.05,0.29-0.1,0.44-0.15
	c0.08-0.03,0.15-0.06,0.23-0.09c0.08-0.03,0.16-0.06,0.24-0.08c0.08-0.03,0.15-0.05,0.23-0.07L7.95,12.67z"/>
<path fill="currentColor" d="M17.36,13.65l-0.01-0.04c0.32,0.01,0.64-0.01,0.96,0.01c0.28,0.05,0.57,0.04,0.86,0.07c0.12,0.02,0.24,0.03,0.36,0.04
	l-0.02,0.04c0.17,0.01,0.35,0.01,0.52,0.03c0.22,0.07,0.46,0.08,0.68,0.16c0.09,0.01,0.18,0.02,0.27,0.03l0,0.04
	c0.21,0.02,0.41,0.1,0.62,0.15l0,0.02c0.26,0.05,0.51,0.17,0.76,0.25c0.07,0.03,0.14,0.06,0.21,0.1c0.08,0.03,0.16,0.07,0.24,0.11
	c0.02,0,0.06-0.01,0.08-0.01l0.01,0.08c0.02,0,0.07-0.01,0.09-0.01c0.13,0.1,0.26,0.18,0.38,0.29c0.02,0,0.05,0.01,0.07,0.01l0,0.07
	l0.05,0c0.04,0.05,0.07,0.1,0.11,0.15c0.03,0.03,0.08,0.09,0.1,0.11c0,0.02,0,0.05,0,0.06c0.04,0.06,0.07,0.11,0.11,0.17
	c0.01,0.22,0.01,0.44-0.1,0.63c-0.03,0.05-0.06,0.1-0.09,0.15c-0.02,0.02-0.05,0.06-0.07,0.08l-0.02,0
	c-0.02,0.02-0.05,0.06-0.07,0.08c-0.29,0.26-0.62,0.46-0.97,0.63c-0.17,0.08-0.33,0.16-0.51,0.22c-0.06,0.02-0.12,0.04-0.18,0.06
	c-0.42,0.16-0.86,0.3-1.28,0.46c-0.1,0.04-0.2,0.07-0.31,0.11c-0.06,0.02-0.12,0.05-0.19,0.08c-0.04,0.01-0.11,0.03-0.14,0.04
	c-0.1,0.04-0.2,0.08-0.3,0.11c-0.07,0.02-0.13,0.04-0.19,0.07c-0.2,0.08-0.4,0.15-0.6,0.22c-0.08,0.03-0.17,0.06-0.25,0.09
	c-0.08,0.03-0.16,0.06-0.24,0.09c-0.06,0.02-0.13,0.04-0.19,0.06c-0.1,0.04-0.2,0.08-0.3,0.12c-0.03,0.01-0.1,0.02-0.14,0.02
	c-0.1,0.04-0.2,0.09-0.3,0.12c-0.07,0.02-0.15,0.04-0.22,0.06l0,0.03c-0.36,0.09-0.71,0.25-1.06,0.36c-0.07,0.02-0.13,0.05-0.2,0.07
	c-0.15,0.05-0.29,0.1-0.44,0.15c-0.16,0.06-0.33,0.12-0.5,0.18c-0.06,0.02-0.13,0.04-0.19,0.07c-0.14,0.05-0.27,0.1-0.41,0.15
	c-0.29,0.09-0.58,0.24-0.88,0.29c0.01-0.73,0-1.45,0-2.18c0.06-0.11,0.21-0.11,0.31-0.17c0.15-0.05,0.29-0.1,0.44-0.15
	c0.13-0.05,0.26-0.09,0.39-0.14c0.11-0.04,0.22-0.08,0.33-0.11l-0.01-0.04c0.08-0.01,0.16-0.01,0.24-0.02l0-0.04
	c0.16-0.05,0.31-0.1,0.46-0.16c0.1-0.04,0.2-0.07,0.31-0.11c0.06-0.02,0.12-0.05,0.19-0.07c0.06-0.02,0.13-0.04,0.19-0.06
	c0.1-0.04,0.2-0.08,0.3-0.11c0.26-0.09,0.53-0.18,0.79-0.28c0.07-0.02,0.13-0.05,0.2-0.07c0.02,0,0.07-0.01,0.09-0.02
	c0.07-0.03,0.14-0.07,0.21-0.1c0.03-0.01,0.1-0.02,0.14-0.02c0.29-0.12,0.58-0.22,0.88-0.32c0.05-0.01,0.14-0.04,0.19-0.06l0-0.03
	c0.07-0.02,0.15-0.04,0.22-0.06c0.15-0.06,0.31-0.12,0.47-0.16l0-0.02c0.11-0.02,0.2-0.08,0.29-0.14l0.05,0
	c0.02-0.02,0.05-0.07,0.07-0.1c0.02-0.01,0.07-0.04,0.09-0.05c0.09-0.17,0.02-0.33-0.15-0.41c-0.07-0.03-0.14-0.05-0.2-0.08
	c-0.13-0.06-0.27-0.05-0.41-0.06l0.01-0.04c-0.32,0-0.64-0.05-0.95,0.04c-0.12,0.01-0.25,0.01-0.37,0.02
	c-0.16,0.06-0.33,0.09-0.5,0.14c-0.17,0.06-0.33,0.11-0.5,0.17c-0.08,0.03-0.16,0.06-0.24,0.1c-0.03,0-0.09,0.01-0.12,0.02
	c-0.1,0.05-0.21,0.09-0.31,0.12c-0.17,0.06-0.34,0.12-0.51,0.15c0,0.01,0,0.04,0,0.06c-0.09,0.02-0.19,0.04-0.28,0.07
	c-0.06,0.02-0.12,0.04-0.18,0.07c-0.11,0.04-0.21,0.07-0.32,0.11c-0.08,0.03-0.16,0.05-0.24,0.08c-0.17,0.06-0.33,0.11-0.5,0.18
	c-0.03,0.01-0.09,0.02-0.12,0.03c-0.1,0.05-0.21,0.09-0.32,0.13c-0.06,0.02-0.12,0.04-0.19,0.06c-0.14,0.06-0.29,0.11-0.44,0.14
	c0-0.7,0-1.39,0-2.09c-0.01-0.09,0.01-0.18,0.04-0.26c0.14-0.02,0.27-0.06,0.4-0.12c0.04-0.01,0.13-0.02,0.17-0.03
	c0.22-0.08,0.45-0.14,0.69-0.19c0.1-0.03,0.2-0.05,0.31-0.06c0.1-0.03,0.2-0.05,0.3-0.08c0.12-0.01,0.23-0.02,0.35-0.03l-0.01-0.04
	c0.18-0.01,0.37-0.02,0.55-0.03l-0.01-0.04C16.65,13.69,17.01,13.64,17.36,13.65z"/>
<g>
	<path fill="currentColor" d="M22.06,18.86c0.23-0.08,0.47-0.05,0.7,0.03c0.21,0.12,0.38,0.3,0.48,0.52c0.05,0.18,0.04,0.37,0.02,0.56
		c-0.03,0.07-0.06,0.14-0.08,0.21l-0.02,0c-0.09,0.15-0.22,0.26-0.36,0.37c-0.01,0-0.04,0-0.06,0.01c-0.23,0.1-0.52,0.1-0.75,0
		c-0.01,0-0.04,0-0.06,0c-0.14-0.11-0.27-0.24-0.38-0.39c-0.02-0.07-0.05-0.13-0.08-0.2c-0.02-0.19-0.04-0.38,0.03-0.56
		c0.03-0.07,0.06-0.13,0.09-0.2c0.08-0.09,0.16-0.17,0.25-0.25C21.92,18.93,21.99,18.89,22.06,18.86z M22.29,18.96
		c-0.11,0.04-0.22,0.08-0.33,0.11c-0.25,0.18-0.39,0.48-0.36,0.78c0.03,0.08,0.06,0.15,0.09,0.23c0.04,0.06,0.08,0.11,0.12,0.17
		c0.02,0.02,0.05,0.05,0.06,0.07c0.1,0.07,0.2,0.12,0.32,0.13l0,0.04c0.09,0,0.18,0,0.27,0c0.11-0.04,0.22-0.09,0.33-0.13l0-0.03
		c0.27-0.22,0.37-0.6,0.23-0.92C22.9,19.12,22.61,18.95,22.29,18.96z"/>
</g>
<g>
	<path fill="currentColor" d="M21.98,19.2c0.2-0.01,0.39-0.01,0.59,0c0.07,0.04,0.14,0.08,0.21,0.13c-0.02,0.13,0.05,0.33-0.11,0.39
		c0.18,0.07,0.07,0.33,0.12,0.49c-0.05,0-0.15-0.01-0.2-0.02c0-0.12-0.01-0.25-0.01-0.37c-0.14-0.01-0.28-0.01-0.43-0.01
		c0,0.15,0,0.3-0.01,0.45c-0.06-0.03-0.13-0.03-0.17-0.09C21.97,19.85,21.98,19.52,21.98,19.2z M22.16,19.37c0,0.07,0,0.2,0,0.27
		c0.14,0,0.29-0.01,0.43-0.01c0-0.08,0-0.16,0-0.24C22.45,19.37,22.3,19.37,22.16,19.37z"/>
</g>
</svg>
