<?xml version="1.0" standalone="no"?>
<!DOCTYPE svg PUBLIC "-//W3C//DTD SVG 20010904//EN"
 "http://www.w3.org/TR/2001/REC-SVG-20010904/DTD/svg10.dtd">
<svg version="1.0" xmlns="http://www.w3.org/2000/svg"
 width="396.000000pt" height="328.000000pt" viewBox="0 0 396.000000 328.000000"
 preserveAspectRatio="xMidYMid meet">

<g transform="translate(0.000000,328.000000) scale(0.100000,-0.100000)"
fill="#000000" stroke="none">
<path fill="currentColor" d="M95 3268 c-3 -7 -6 -206 -7 -443 l-3 -430 -33 -14 -32 -15 0 -141 0
-141 32 -15 33 -14 5 -376 c5 -353 6 -378 24 -398 17 -19 30 -21 136 -21 101
0 121 3 141 19 l24 19 5 384 5 383 180 5 c202 6 231 14 270 80 19 34 20 53 23
510 2 261 0 494 -3 517 -4 29 -16 53 -36 73 l-31 30 -364 0 c-283 0 -366 -3
-369 -12z m460 -583 l0 -300 -59 -3 c-41 -2 -62 1 -67 10 -10 16 -12 582 -2
592 4 4 34 6 68 4 l60 -3 0 -300z"/>
<path fill="currentColor" d="M1087 3274 c-4 -4 -7 -422 -7 -928 0 -1032 -4 -965 73 -1033 58 -51
85 -55 379 -51 l266 3 44 30 c23 17 54 51 68 75 l25 45 3 919 c2 680 0 922 -9
932 -9 11 -46 14 -160 14 -136 0 -149 -2 -159 -19 -7 -13 -10 -298 -10 -853 0
-635 -3 -837 -12 -846 -17 -17 -152 -16 -167 1 -8 10 -12 256 -13 863 l-3 849
-156 3 c-85 1 -158 -1 -162 -4z"/>
<path fill="currentColor" d="M2125 3268 c-3 -7 -6 -181 -7 -387 l-3 -374 -30 -17 -30 -17 -3 -131
c-2 -120 -1 -133 15 -138 50 -16 48 10 53 -480 l5 -459 300 -3 c328 -3 354 0
411 50 75 66 74 60 74 497 0 249 -4 400 -11 417 -5 16 -30 51 -54 79 -41 49
-42 51 -22 61 11 5 30 22 41 37 20 27 21 42 24 394 2 200 1 381 -3 400 -3 19
-17 46 -30 59 l-24 24 -351 0 c-271 0 -352 -3 -355 -12z m446 -279 c14 -22 11
-483 -3 -497 -19 -19 -124 -16 -132 4 -3 9 -6 121 -6 249 0 272 0 270 83 262
27 -2 53 -11 58 -18z m-3 -831 c17 -17 17 -579 0 -596 -7 -7 -35 -12 -63 -12
-28 0 -56 5 -63 12 -17 17 -17 579 0 596 7 7 35 12 63 12 28 0 56 -5 63 -12z"/>
<path fill="currentColor" d="M3150 3258 c-18 -13 -43 -36 -54 -51 -21 -28 -21 -34 -24 -905 -1
-482 0 -892 3 -910 7 -40 59 -101 102 -118 24 -11 96 -14 288 -14 281 0 287 1
352 63 63 59 63 67 61 637 l-3 515 -190 0 -190 0 -3 -115 c-3 -142 0 -158 36
-162 l27 -3 0 -320 0 -320 -75 0 -75 0 0 720 0 720 94 3 c69 2 97 -1 103 -10
4 -7 8 -55 8 -106 l0 -93 133 3 132 3 3 200 c2 135 -1 209 -9 228 -24 57 -25
57 -370 57 -311 0 -317 0 -349 -22z"/>
<path fill="currentColor" d="M50 1060 c0 -57 -1 -60 -25 -60 -22 0 -25 -4 -25 -40 0 -36 3 -40 25
-40 l25 0 0 -150 0 -150 -25 0 c-22 0 -25 -4 -25 -40 0 -36 3 -40 25 -40 24 0
25 -3 25 -60 l0 -60 1930 0 1930 0 0 60 c0 57 1 60 25 60 23 0 25 4 25 40 0
36 -2 40 -25 40 l-25 0 0 150 0 150 25 0 c23 0 25 4 25 40 0 36 -2 40 -25 40
-24 0 -25 3 -25 60 l0 60 -1930 0 -1930 0 0 -60z m3780 -290 l0 -270 -1850 0
-1850 0 0 270 0 270 1850 0 1850 0 0 -270z"/>
<path fill="currentColor" d="M332 887 c-19 -21 -22 -34 -22 -119 0 -92 1 -97 26 -117 33 -26 94
-28 123 -3 12 9 24 34 28 55 l6 37 -37 0 c-32 0 -36 -3 -36 -25 0 -18 -5 -25
-20 -25 -18 0 -20 7 -20 80 0 73 2 80 20 80 15 0 20 -7 20 -25 0 -22 4 -25 36
-25 l37 0 -6 38 c-8 48 -38 72 -91 72 -31 0 -48 -6 -64 -23z"/>
<path fill="currentColor" d="M662 890 c-20 -19 -22 -31 -22 -120 0 -95 1 -99 26 -119 38 -30 98
-28 129 4 23 22 25 32 25 115 0 83 -2 93 -25 115 -32 33 -101 35 -133 5z m83
-120 c0 -63 -3 -75 -17 -78 -16 -3 -18 6 -18 78 0 72 2 81 18 78 14 -3 17 -15
17 -78z"/>
<path fill="currentColor" d="M970 776 l0 -136 35 0 c34 0 35 1 36 43 l0 42 17 -42 c15 -40 19 -43
54 -43 l38 0 -21 51 c-18 47 -18 53 -4 69 19 21 20 99 1 125 -11 15 -30 20
-85 23 l-71 4 0 -136z m104 59 c8 -21 -3 -45 -20 -45 -9 0 -14 11 -14 30 0 32
23 42 34 15z"/>
<path fill="currentColor" d="M1290 776 l0 -136 35 0 c35 0 35 0 35 45 0 44 1 45 33 45 17 0 37 4
43 8 36 24 45 106 15 143 -16 19 -30 24 -90 27 l-71 4 0 -136z m110 44 c0 -23
-4 -30 -20 -30 -16 0 -20 7 -20 30 0 23 4 30 20 30 16 0 20 -7 20 -30z"/>
<path fill="currentColor" d="M1647 898 c-24 -19 -37 -63 -37 -128 0 -66 12 -107 38 -126 26 -20
96 -17 123 5 22 18 24 26 24 121 0 95 -2 103 -24 121 -27 22 -98 26 -124 7z
m81 -126 c2 -60 0 -73 -14 -79 -23 -9 -34 14 -34 74 0 63 8 85 29 81 13 -3 17
-18 19 -76z"/>
<path fill="currentColor" d="M1950 776 l0 -136 35 0 35 0 1 53 0 52 20 -52 c19 -50 23 -53 55 -53
39 0 39 0 18 56 -15 39 -15 44 0 65 22 32 20 91 -3 120 -16 19 -30 24 -90 27
l-71 4 0 -136z m110 44 c0 -23 -4 -30 -20 -30 -16 0 -20 7 -20 30 0 23 4 30
20 30 16 0 20 -7 20 -30z"/>
<path fill="currentColor" d="M2306 833 c-9 -43 -23 -104 -31 -135 l-13 -58 33 0 c27 0 34 5 39 25
4 16 13 25 25 25 12 0 21 -9 25 -25 5 -21 12 -25 42 -25 29 0 34 3 30 18 -2 9
-17 70 -32 135 l-27 117 -37 0 -37 0 -17 -77z m64 -84 c0 -5 -4 -9 -10 -9 -5
0 -10 7 -10 16 0 8 5 12 10 9 6 -3 10 -10 10 -16z"/>
<path fill="currentColor" d="M2570 880 c0 -27 3 -30 30 -30 l30 0 0 -105 0 -105 35 0 35 0 0 105
0 105 25 0 c21 0 25 5 25 30 l0 30 -90 0 -90 0 0 -30z"/>
<path fill="currentColor" d="M2900 775 l0 -135 35 0 35 0 0 135 0 135 -35 0 -35 0 0 -135z"/>
<path fill="currentColor" d="M3149 891 c-20 -16 -24 -30 -27 -95 -7 -128 15 -166 93 -166 78 0
100 38 93 166 -4 91 -23 114 -93 114 -27 0 -51 -7 -66 -19z m86 -121 c0 -68
-2 -75 -20 -75 -18 0 -20 8 -23 64 -4 75 2 94 25 89 15 -3 18 -15 18 -78z"/>
<path fill="currentColor" d="M3460 775 l0 -135 35 0 35 0 0 53 0 52 31 -52 c26 -45 35 -53 60 -53
l29 0 0 135 0 135 -35 0 -35 0 0 -57 -1 -58 -30 58 c-26 50 -33 57 -59 57
l-30 0 0 -135z"/>
<path fill="currentColor" d="M120 200 l0 -110 29 0 c26 0 30 4 33 33 l3 32 18 -32 c14 -26 24 -33
48 -33 21 0 29 4 26 12 -3 7 -15 37 -27 65 l-23 53 27 40 c14 22 26 42 26 45
0 3 -13 5 -29 5 -20 0 -36 -8 -50 -27 l-20 -28 -1 28 c0 23 -4 27 -30 27 l-30
0 0 -110z"/>
<path fill="currentColor" d="M350 200 l0 -110 25 0 c22 0 25 4 25 35 0 19 4 35 8 35 4 0 14 -16
21 -35 10 -29 17 -35 42 -35 34 0 33 -2 15 41 -12 29 -12 37 0 54 19 25 18 75
-2 103 -13 19 -24 22 -75 22 l-59 0 0 -110z m88 48 c8 -8 9 -15 1 -25 -18 -21
-39 -15 -39 12 0 27 18 33 38 13z"/>
<path fill="currentColor" d="M595 213 c-15 -54 -30 -104 -32 -111 -4 -8 5 -12 26 -12 21 0 31 5
31 15 0 10 10 15 30 15 20 0 30 -5 30 -15 0 -10 10 -15 30 -15 35 0 35 -2 11
75 -10 33 -24 79 -30 103 -10 37 -15 42 -40 42 -27 0 -29 -4 -56 -97z m65 -28
c0 -8 -4 -15 -10 -15 -5 0 -10 7 -10 15 0 8 5 15 10 15 6 0 10 -7 10 -15z"/>
<path fill="currentColor" d="M810 200 l0 -110 25 0 c23 0 25 4 25 40 0 39 1 40 35 40 31 0 35 3
35 25 0 22 -4 25 -35 25 -28 0 -35 4 -35 20 0 17 7 20 40 20 36 0 40 3 40 25
0 24 -2 25 -65 25 l-65 0 0 -110z"/>
<path fill="currentColor" d="M1000 285 c0 -20 5 -25 25 -25 25 0 25 -1 25 -85 0 -84 0 -85 25 -85
25 0 25 1 25 85 0 84 0 85 25 85 20 0 25 5 25 25 0 24 -2 25 -75 25 -73 0 -75
-1 -75 -25z"/>
<path fill="currentColor" d="M1244 302 c-22 -14 -34 -51 -34 -102 0 -51 12 -88 34 -102 23 -16 86
-8 106 12 16 16 20 33 20 90 0 57 -4 74 -20 90 -20 20 -83 28 -106 12z m64
-54 c17 -17 15 -83 -3 -98 -23 -19 -35 -2 -35 49 0 60 12 75 38 49z"/>
<path fill="currentColor" d="M1450 200 l0 -110 25 0 c23 0 25 3 25 53 l0 52 31 -52 c24 -41 36
-53 55 -53 24 0 24 0 24 110 l0 110 -24 0 c-23 0 -25 -5 -28 -47 l-3 -48 -28
48 c-21 36 -34 47 -52 47 l-25 0 0 -110z"/>
<path fill="currentColor" d="M1816 288 c-11 -15 -16 -45 -16 -94 0 -84 14 -104 77 -104 51 0 73
23 73 78 0 41 -1 42 -35 42 -28 0 -35 -4 -35 -19 0 -11 6 -21 13 -24 9 -4 9
-7 0 -17 -20 -21 -43 6 -43 50 0 43 23 71 42 52 20 -20 58 -15 58 7 0 32 -28
51 -75 51 -34 0 -47 -5 -59 -22z"/>
<path fill="currentColor" d="M2045 213 c-15 -54 -30 -104 -32 -111 -4 -8 5 -12 26 -12 21 0 31 5
31 15 0 10 10 15 30 15 20 0 30 -5 30 -15 0 -10 10 -15 30 -15 35 0 35 -2 11
75 -10 33 -24 79 -30 103 -10 37 -15 42 -40 42 -27 0 -29 -4 -56 -97z m65 -28
c0 -8 -4 -15 -10 -15 -5 0 -10 7 -10 15 0 8 5 15 10 15 6 0 10 -7 10 -15z"/>
<path fill="currentColor" d="M2260 200 l0 -110 25 0 c23 0 25 4 25 48 1 37 3 43 11 30 14 -25 34
-22 47 5 9 19 11 15 11 -30 1 -50 3 -53 26 -53 l25 0 0 110 0 110 -25 0 c-18
0 -29 -9 -42 -35 l-18 -35 -19 35 c-14 25 -26 35 -43 35 -23 0 -23 -1 -23
-110z"/>
<path fill="currentColor" d="M2510 200 l0 -110 70 0 c68 0 70 1 70 25 0 23 -4 25 -40 25 -33 0
-40 3 -40 20 0 16 7 20 35 20 31 0 35 3 35 25 0 22 -4 25 -35 25 -24 0 -35 5
-35 15 0 10 11 15 35 15 31 0 35 3 35 25 0 24 -2 25 -65 25 l-65 0 0 -110z"/>
<path fill="currentColor" d="M2830 220 c0 -106 14 -130 78 -130 66 0 82 27 82 139 l0 81 -30 0
-29 0 -3 -82 c-2 -66 -6 -83 -18 -83 -12 0 -16 17 -18 83 l-3 82 -29 0 -30 0
0 -90z"/>
<path fill="currentColor" d="M3070 200 l0 -110 25 0 c23 0 25 3 25 53 l0 52 31 -52 c24 -41 36
-53 55 -53 24 0 24 0 24 110 l0 110 -24 0 c-23 0 -25 -5 -28 -47 l-3 -48 -28
48 c-21 36 -34 47 -52 47 l-25 0 0 -110z"/>
<path fill="currentColor" d="M3310 200 l0 -110 30 0 30 0 0 110 0 110 -30 0 -30 0 0 -110z"/>
<path fill="currentColor" d="M3474 302 c-22 -14 -34 -51 -34 -102 0 -51 12 -88 34 -102 23 -16 86
-8 106 12 16 16 20 33 20 90 0 57 -4 74 -20 90 -20 20 -83 28 -106 12z m64
-54 c17 -17 15 -83 -3 -98 -23 -19 -35 -2 -35 49 0 60 12 75 38 49z"/>
<path fill="currentColor" d="M3680 200 l0 -110 25 0 c23 0 25 3 25 53 l0 52 31 -52 c24 -41 36
-53 55 -53 24 0 24 0 24 110 l0 110 -24 0 c-23 0 -25 -5 -28 -47 l-3 -48 -28
48 c-21 36 -34 47 -52 47 l-25 0 0 -110z"/>
</g>
</svg>
